<svg width="60" height="60" viewBox="0 0 60 60" fill="none" xmlns="http://www.w3.org/2000/svg">
<path d="M43.7523 56.4223C45.3954 55.5326 51.5481 51.999 55.8023 44.4788C56.5695 43.1228 62.0224 32.4853 59.1488 21.7615C54.3057 3.69004 28.7539 -4.38272 14.7794 2.3638C12.8433 3.29848 5.92055 6.64129 4.96992 12.3197C4.22594 16.7596 7.59558 19.8682 5.75015 25.2704C5.28389 26.6343 4.36807 28.7676 3.226 30.5637C2.02158 32.4556 1.04411 33.296 0.490846 34.6527C0.264034 35.3355 0.110175 36.0404 0.0318444 36.7556C-0.290109 39.9461 6.228 55.133 21.8166 59.082C24.2153 59.686 33.8239 61.7998 43.7523 56.4223Z" fill="#9BB5E0"/>
<path d="M32.6836 5.1637L47.0372 9.80958L51.1647 18.7929L43.3298 40.415L22.3685 33.6304L32.6836 5.1637Z" fill="white"/>
<path fill-rule="evenodd" clip-rule="evenodd" d="M46.6855 10.1886L32.9712 5.74966L22.9759 33.3342L43.0421 39.8291L50.6533 18.8244L46.6855 10.1886ZM47.0372 9.80958L32.6836 5.1637L22.3685 33.6304L43.3298 40.415L51.1647 18.7929L47.0372 9.80958Z" fill="#B08920"/>
<path d="M51.075 19.0773L46.7041 9.74487L44.1329 16.8384L51.075 19.0773Z" fill="#B08920"/>
<path d="M8.52344 11.0106L23.3443 8.34349L31.6161 14.1854L36.194 36.5186L14.5505 40.4135L8.52344 11.0106Z" fill="white"/>
<path fill-rule="evenodd" clip-rule="evenodd" d="M23.5124 8.78769L9.09508 11.3822L14.9353 39.8738L36.0303 36.0776L31.5831 14.3822L23.5124 8.78769ZM23.6207 8.29576L8.53125 11.0112L14.5583 40.4141L36.5941 36.4486L32.0162 14.1154L23.6207 8.29576Z" fill="#B08920"/>
<path d="M32.1281 14.4302L23.4316 8.39978L24.9491 15.7136L32.1281 14.4302Z" fill="#B08920"/>
<path d="M6.2832 21.5984V52.7169C6.2832 53.7295 7.13665 54.5504 8.18943 54.5504H50.0788C51.1316 54.5504 51.9851 53.7295 51.9851 52.7169V27.0314C51.9851 26.0188 51.1316 25.1979 50.0788 25.1979H31.0781L26.1305 20.3183C25.7718 19.9644 25.2797 19.7649 24.7658 19.7649H8.18943C7.13665 19.7649 6.2832 20.5858 6.2832 21.5984Z" fill="#0645B1"/>
<path fill-rule="evenodd" clip-rule="evenodd" d="M8.18749 19.9972C7.26793 19.9972 6.52248 20.7142 6.52248 21.5987V52.7172C6.52248 53.6017 7.26793 54.3187 8.18749 54.3187H50.0769C50.9965 54.3187 51.7419 53.6017 51.7419 52.7172V27.0317C51.7419 26.1472 50.9965 25.4302 50.0769 25.4302H30.9744L25.9559 20.4806C25.6425 20.1715 25.2127 19.9972 24.7639 19.9972H8.18749ZM6.04004 21.5987C6.04004 20.458 7.00149 19.5332 8.18749 19.5332H24.7639C25.3428 19.5332 25.8971 19.758 26.3013 20.1566L31.1778 24.9662H50.0769C51.2629 24.9662 52.2243 25.891 52.2243 27.0317V52.7172C52.2243 53.8579 51.2629 54.7827 50.0769 54.7827H8.18749C7.00149 54.7827 6.04004 53.8579 6.04004 52.7172V21.5987Z" fill="#222233"/>
<path fill-rule="evenodd" clip-rule="evenodd" d="M30.1787 35.3206L30.1787 46.0887L28.2725 46.0887L28.2725 35.3206L30.1787 35.3206Z" fill="white"/>
<path fill-rule="evenodd" clip-rule="evenodd" d="M29.2278 36.3856L33.3078 40.3188L34.6572 39.0238L29.2278 33.7897L23.7983 39.0238L25.1478 40.3188L29.2278 36.3856Z" fill="white"/>
<path d="M3.56721 9.87905C3.56721 10.2571 3.41301 10.5879 3.10463 10.8714C2.80217 11.1549 2.44337 11.2967 2.02824 11.2967C1.37588 11.2967 0.874751 11.0811 0.524851 10.6499C0.17495 10.2187 0 9.62211 0 8.86015C0 8.15134 0.299491 7.43663 0.898473 6.71601C1.50339 5.9954 2.22987 5.44903 3.07794 5.0769L3.46935 5.70597C2.7992 6.03084 2.27435 6.40887 1.8948 6.84005C1.51525 7.27124 1.29582 7.79399 1.23651 8.40828H1.73468C2.10237 8.40828 2.40186 8.44963 2.63315 8.53232C2.86444 8.61502 3.05125 8.7302 3.19358 8.87787C3.32998 9.01963 3.42487 9.17615 3.47825 9.34745C3.53755 9.51874 3.56721 9.69594 3.56721 9.87905ZM8.13353 9.87905C8.13353 10.2571 7.97933 10.5879 7.67095 10.8714C7.36849 11.1549 7.0097 11.2967 6.59456 11.2967C5.9422 11.2967 5.44107 11.0811 5.09117 10.6499C4.74127 10.2187 4.56632 9.62211 4.56632 8.86015C4.56632 8.15134 4.86581 7.43663 5.4648 6.71601C6.06971 5.9954 6.7962 5.44903 7.64426 5.0769L8.03567 5.70597C7.36553 6.03084 6.84068 6.40887 6.46112 6.84005C6.08157 7.27124 5.86214 7.79399 5.80284 8.40828H6.301C6.66869 8.40828 6.96818 8.44963 7.19947 8.53232C7.43076 8.61502 7.61757 8.7302 7.75991 8.87787C7.89631 9.01963 7.9912 9.17615 8.04457 9.34745C8.10388 9.51874 8.13353 9.69594 8.13353 9.87905Z" fill="#B08920"/>
<path d="M54.1818 6.49448C54.1818 6.11646 54.336 5.78568 54.6444 5.50216C54.9469 5.21864 55.3057 5.07688 55.7208 5.07688C56.3731 5.07688 56.8743 5.29247 57.2242 5.72366C57.5741 6.15485 57.749 6.75143 57.749 7.51339C57.749 8.22219 57.4495 8.9369 56.8506 9.65752C56.2456 10.3781 55.5191 10.9245 54.6711 11.2966L54.2797 10.6676C54.9498 10.3427 55.4747 9.96467 55.8542 9.53348C56.2338 9.10229 56.4532 8.57955 56.5125 7.96525L56.0143 7.96525C55.6467 7.96525 55.3472 7.92391 55.1159 7.84121C54.8846 7.75852 54.6978 7.64334 54.5554 7.49567C54.419 7.35391 54.3242 7.19738 54.2708 7.02609C54.2115 6.85479 54.1818 6.67759 54.1818 6.49448ZM49.6155 6.49448C49.6155 6.11645 49.7697 5.78568 50.0781 5.50216C50.3805 5.21864 50.7393 5.07688 51.1545 5.07688C51.8068 5.07688 52.308 5.29247 52.6579 5.72366C53.0078 6.15485 53.1827 6.75142 53.1827 7.51339C53.1827 8.22219 52.8832 8.9369 52.2842 9.65752C51.6793 10.3781 50.9528 10.9245 50.1048 11.2966L49.7133 10.6676C50.3835 10.3427 50.9083 9.96467 51.2879 9.53348C51.6675 9.10229 51.8869 8.57955 51.9462 7.96525L51.448 7.96525C51.0803 7.96525 50.7808 7.9239 50.5496 7.84121C50.3183 7.75852 50.1315 7.64334 49.9891 7.49567C49.8527 7.35391 49.7578 7.19738 49.7045 7.02609C49.6451 6.85479 49.6155 6.67759 49.6155 6.49448Z" fill="#B08920"/>
</svg>
